<svg version="1.2" baseProfile="tiny-ps" xmlns="http://www.w3.org/2000/svg" viewBox="0 0 1200 1200" width="1200" height="1200">
	<title>Challenge_vs_skill Wikipedia Fix</title>
	<style>
		tspan { white-space:pre }
		.shp0 { fill: #000000 } 
		.shp1 { fill: #ffffff } 
		.shp2 { fill: #81e7d5 } 
		.shp3 { fill: #ffcc3c } 
		.shp4 { fill: #ccff00 } 
		.shp5 { fill: #b6c1d3 } 
		.shp6 { fill: #51ca6e } 
		.shp7 { fill: #62dbd5 } 
		.shp8 { fill: #ffff00 } 
		.shp9 { fill: #ff8084 } 
	</style>
	<g id="Grid">
		<g id="BG">
			<path id="BG Stroke" class="shp0" d="M200 0L1200 0L1200 1000L200 1000L200 0Z" />
			<path id="BG" class="shp1" d="M205 0L1200 0L1200 995L205 995L205 0Z" />
		</g>
		<g id="Sections">
			<g id="Middle">
				<path id="Bottom Middle" class="shp2" d="M921 995L483 995L702.5 497.02L921 995Z" />
				<path id="Top Middle" class="shp3" d="M921.16 0C921.16 0 483 -0.1 483 0L702.5 498.06L921.16 0Z" />
				<path id="Right Middle" class="shp4" d="M1200 716L1200 278L701.96 497.54L1200 716Z" />
				<path id="Left Middle" class="shp5" d="M205.14 716.11C205.14 716.11 205.06 277.98 205.04 278L703 497.54L205.14 716.11Z" />
			</g>
			<g id="Corners">
				<path id="Bottom Right Corner" class="shp6" d="M1200 995L921 995L702 496.98L1200 716" />
				<path id="Bottom Left Corner" class="shp7" d="M205.12 994.98L485 995L703.05 497.01L205.17 715.9" />
				<path id="Top Right Corner" class="shp8" d="M1200 -0.88C1200 -0.88 921.05 0 921 0.05L702.02 498.03L1200 280" />
				<path id="Top Left Corner" class="shp9" d="M205.15 0L483.16 0L702.98 498L205.14 277.87" />
			</g>
		</g>
		<path id="1x1" class="shp1" d="M702 497L703 497L703 498L702 498L702 497Z" />
	</g>
	<g id="Text">
		<g id="Axes Labels">
			<g id="Skill Level">
				<path id="Low" fill="#000000" aria-label="Low"  d="M320.44 1042L297.16 1042L297.16 1005.64L304.85 1005.64L304.85 1035.66L320.44 1035.66L320.44 1042ZM337.71 1042.53Q333.58 1042.53 330.56 1040.77Q327.56 1039 325.92 1035.84Q324.29 1032.66 324.29 1028.47Q324.29 1024.24 325.92 1021.08Q327.56 1017.91 330.56 1016.15Q333.58 1014.37 337.71 1014.37Q341.85 1014.37 344.85 1016.15Q347.87 1017.91 349.5 1021.08Q351.14 1024.24 351.14 1028.47Q351.14 1032.66 349.5 1035.84Q347.87 1039 344.85 1040.77Q341.85 1042.53 337.71 1042.53ZM337.75 1036.67Q339.63 1036.67 340.89 1035.61Q342.15 1034.52 342.79 1032.66Q343.45 1030.8 343.45 1028.42Q343.45 1026.04 342.79 1024.17Q342.15 1022.31 340.89 1021.23Q339.63 1020.14 337.75 1020.14Q335.85 1020.14 334.55 1021.23Q333.28 1022.31 332.62 1024.17Q331.98 1026.04 331.98 1028.42Q331.98 1030.8 332.62 1032.66Q333.28 1034.52 334.55 1035.61Q335.85 1036.67 337.75 1036.67ZM368.77 1042L360.78 1042L353.36 1014.73L361.01 1014.73L365.24 1033.05L365.48 1033.05L369.89 1014.73L377.4 1014.73L381.87 1032.94L382.1 1032.94L386.26 1014.73L393.89 1014.73L386.49 1042L378.48 1042L373.79 1024.85L373.46 1024.85L368.77 1042Z" />
				<path id="Medium" fill="#000000" aria-label="Medium"  d="M607.16 1044L607.16 1007.64L616.64 1007.64L626.66 1032.07L627.08 1032.07L637.1 1007.64L646.58 1007.64L646.58 1044L639.12 1044L639.12 1020.33L638.82 1020.33L629.41 1043.82L624.33 1043.82L614.92 1020.24L614.62 1020.24L614.62 1044L607.16 1044ZM665.19 1044.53Q660.98 1044.53 657.94 1042.83Q654.92 1041.11 653.29 1037.96Q651.66 1034.8 651.66 1030.49Q651.66 1026.28 653.29 1023.1Q654.92 1019.92 657.89 1018.15Q660.87 1016.37 664.88 1016.37Q667.58 1016.37 669.91 1017.24Q672.25 1018.09 673.99 1019.82Q675.75 1021.54 676.73 1024.15Q677.7 1026.74 677.7 1030.22L677.7 1032.3L654.67 1032.3L654.67 1027.61L670.58 1027.61Q670.58 1025.98 669.87 1024.72Q669.16 1023.46 667.9 1022.75Q666.66 1022.02 665.01 1022.02Q663.29 1022.02 661.95 1022.82Q660.64 1023.6 659.89 1024.93Q659.15 1026.24 659.13 1027.86L659.13 1032.32Q659.13 1034.34 659.88 1035.81Q660.64 1037.29 662.03 1038.09Q663.41 1038.89 665.31 1038.89Q666.57 1038.89 667.62 1038.53Q668.67 1038.18 669.41 1037.47Q670.16 1036.76 670.55 1035.73L677.54 1036.19Q677.01 1038.71 675.36 1040.59Q673.73 1042.46 671.13 1043.5Q668.56 1044.53 665.19 1044.53ZM692.69 1044.44Q689.58 1044.44 687.06 1042.85Q684.56 1041.23 683.08 1038.11Q681.63 1034.96 681.63 1030.4Q681.63 1025.71 683.14 1022.6Q684.65 1019.48 687.15 1017.93Q689.67 1016.37 692.67 1016.37Q694.96 1016.37 696.49 1017.15Q698.03 1017.92 698.98 1019.07Q699.93 1020.21 700.43 1021.31L700.66 1021.31L700.66 1007.64L708.21 1007.64L708.21 1044L700.75 1044L700.75 1039.63L700.43 1039.63Q699.9 1040.77 698.92 1041.89Q697.96 1042.99 696.42 1043.72Q694.89 1044.44 692.69 1044.44ZM695.09 1038.42Q696.92 1038.42 698.18 1037.43Q699.45 1036.42 700.13 1034.61Q700.82 1032.8 700.82 1030.36Q700.82 1027.93 700.15 1026.14Q699.47 1024.34 698.19 1023.37Q696.92 1022.39 695.09 1022.39Q693.22 1022.39 691.94 1023.4Q690.67 1024.42 690.01 1026.21Q689.35 1028 689.35 1030.36Q689.35 1032.74 690.01 1034.57Q690.68 1036.38 691.94 1037.41Q693.22 1038.42 695.09 1038.42ZM721.97 1044L714.4 1044L714.4 1016.73L721.97 1016.73L721.97 1044ZM718.22 1013.21Q716.54 1013.21 715.33 1012.09Q714.12 1010.96 714.12 1009.38Q714.12 1007.81 715.33 1006.7Q716.54 1005.56 718.2 1005.56Q719.91 1005.56 721.1 1006.7Q722.31 1007.81 722.31 1009.38Q722.31 1010.96 721.1 1012.09Q719.91 1013.21 718.22 1013.21ZM745.5 1032.39L745.5 1016.73L753.06 1016.73L753.06 1044L745.8 1044L745.8 1039.05L745.51 1039.05Q744.59 1041.44 742.44 1042.9Q740.31 1044.36 737.24 1044.36Q734.5 1044.36 732.43 1043.11Q730.35 1041.87 729.18 1039.58Q728.02 1037.29 728.01 1034.09L728.01 1016.73L735.57 1016.73L735.57 1032.74Q735.59 1035.16 736.87 1036.56Q738.14 1037.96 740.29 1037.96Q741.66 1037.96 742.85 1037.34Q744.04 1036.7 744.77 1035.46Q745.51 1034.22 745.5 1032.39ZM766.66 1044L759.1 1044L759.1 1016.73L766.3 1016.73L766.3 1021.54L766.62 1021.54Q767.48 1019.14 769.47 1017.76Q771.45 1016.37 774.22 1016.37Q777.03 1016.37 779 1017.77Q780.97 1019.16 781.63 1021.54L781.91 1021.54Q782.75 1019.2 784.93 1017.79Q787.13 1016.37 790.13 1016.37Q793.95 1016.37 796.33 1018.8Q798.73 1021.22 798.73 1025.66L798.73 1044L791.18 1044L791.18 1027.15Q791.18 1024.88 789.97 1023.74Q788.77 1022.6 786.95 1022.6Q784.89 1022.6 783.74 1023.92Q782.59 1025.21 782.59 1027.35L782.59 1044L775.25 1044L775.25 1026.99Q775.25 1024.98 774.1 1023.79Q772.96 1022.6 771.1 1022.6Q769.84 1022.6 768.83 1023.24Q767.83 1023.87 767.25 1025Q766.66 1026.12 766.66 1027.63L766.66 1044Z" />
				<path id="High" fill="#000000" aria-label="High"  d="M1013.85 1044L1006.16 1044L1006.16 1007.64L1013.85 1007.64L1013.85 1022.64L1029.46 1022.64L1029.46 1007.64L1037.13 1007.64L1037.13 1044L1029.46 1044L1029.46 1028.98L1013.85 1028.98L1013.85 1044ZM1050.89 1044L1043.32 1044L1043.32 1016.73L1050.89 1016.73L1050.89 1044ZM1047.14 1013.21Q1045.45 1013.21 1044.25 1012.09Q1043.04 1010.96 1043.04 1009.38Q1043.04 1007.81 1044.25 1006.7Q1045.45 1005.56 1047.12 1005.56Q1048.83 1005.56 1050.02 1006.7Q1051.22 1007.81 1051.22 1009.38Q1051.22 1010.96 1050.02 1012.09Q1048.83 1013.21 1047.14 1013.21ZM1069.21 1054.62Q1065.54 1054.62 1062.91 1053.62Q1060.3 1052.63 1058.75 1050.94Q1057.21 1049.26 1056.75 1047.2L1063.74 1046.25Q1064.06 1047 1064.75 1047.68Q1065.45 1048.33 1066.58 1048.76Q1067.74 1049.18 1069.39 1049.18Q1071.86 1049.18 1073.45 1048.01Q1075.07 1046.84 1075.07 1044.16L1075.07 1039.17L1074.75 1039.17Q1074.25 1040.31 1073.26 1041.32Q1072.26 1042.33 1070.7 1042.97Q1069.14 1043.61 1066.97 1043.61Q1063.9 1043.61 1061.38 1042.19Q1058.88 1040.75 1057.39 1037.8Q1055.91 1034.84 1055.91 1030.31Q1055.91 1025.68 1057.42 1022.57Q1058.93 1019.46 1061.43 1017.92Q1063.96 1016.37 1066.96 1016.37Q1069.25 1016.37 1070.79 1017.15Q1072.34 1017.92 1073.28 1019.07Q1074.24 1020.21 1074.75 1021.31L1075.03 1021.31L1075.03 1016.73L1082.55 1016.73L1082.55 1044.27Q1082.55 1047.68 1080.84 1049.98Q1079.14 1052.27 1076.12 1053.45Q1073.12 1054.62 1069.21 1054.62ZM1069.37 1037.93Q1071.2 1037.93 1072.46 1037.02Q1073.74 1036.1 1074.41 1034.39Q1075.11 1032.67 1075.11 1030.27Q1075.11 1027.88 1074.43 1026.12Q1073.76 1024.34 1072.48 1023.37Q1071.2 1022.39 1069.37 1022.39Q1067.51 1022.39 1066.23 1023.4Q1064.95 1024.4 1064.29 1026.17Q1063.64 1027.95 1063.64 1030.27Q1063.64 1032.64 1064.29 1034.36Q1064.97 1036.06 1066.23 1037Q1067.51 1037.93 1069.37 1037.93ZM1096.15 1028.23L1096.15 1044L1088.58 1044L1088.58 1007.64L1095.93 1007.64L1095.93 1021.54L1096.25 1021.54Q1097.18 1019.12 1099.24 1017.76Q1101.3 1016.37 1104.4 1016.37Q1107.24 1016.37 1109.36 1017.62Q1111.49 1018.84 1112.66 1021.15Q1113.85 1023.44 1113.83 1026.63L1113.83 1044L1106.27 1044L1106.27 1027.98Q1106.28 1025.46 1104.99 1024.06Q1103.71 1022.66 1101.4 1022.66Q1099.86 1022.66 1098.67 1023.31Q1097.5 1023.97 1096.82 1025.23Q1096.16 1026.48 1096.15 1028.23Z" />
				<path id="Skill level" fill="#000000" aria-label="Skill level"  d="M618.75 1107.81L612.41 1107.81Q612.48 1105.34 610.92 1104.03Q609.35 1102.71 606.41 1102.71Q603.32 1102.71 601.36 1104.06Q599.41 1105.4 599.06 1107.46Q598.79 1108.96 599.55 1109.94Q600.32 1110.92 601.65 1111.52Q602.98 1112.11 604.42 1112.46L607.69 1113.31Q610.3 1113.95 612.51 1115.21Q614.75 1116.46 615.94 1118.55Q617.13 1120.63 616.6 1123.79Q616.07 1126.99 614.02 1129.42Q612 1131.83 608.7 1133.2Q605.41 1134.55 601.04 1134.55Q594.69 1134.55 591.39 1131.62Q588.08 1128.67 588.79 1123.26L595.27 1123.26Q594.99 1126.12 596.91 1127.52Q598.84 1128.92 601.91 1128.92Q605.15 1128.92 607.38 1127.5Q609.64 1126.06 610.01 1123.74Q610.38 1121.62 608.75 1120.54Q607.13 1119.44 604.29 1118.69L600.35 1117.63Q596.07 1116.46 593.85 1114.11Q591.65 1111.77 592.29 1107.86Q592.84 1104.63 594.97 1102.24Q597.12 1099.82 600.35 1098.49Q603.6 1097.14 607.42 1097.14Q611.29 1097.14 613.97 1098.49Q616.67 1099.84 617.93 1102.25Q619.19 1104.65 618.75 1107.81ZM626.91 1134L620.49 1134L626.52 1097.64L632.95 1097.64L629.63 1117.68L630.04 1117.68L641.71 1106.73L649.22 1106.73L636.68 1118.52L645.29 1134L637.6 1134L631.19 1122.33L628.44 1124.82L626.91 1134ZM655.36 1134L648.93 1134L653.48 1106.73L659.9 1106.73L655.36 1134ZM657.63 1102.82Q656.11 1102.82 655.08 1101.81Q654.06 1100.78 654.19 1099.34Q654.33 1097.88 655.5 1096.87Q656.67 1095.84 658.22 1095.84Q659.75 1095.84 660.74 1096.87Q661.75 1097.88 661.63 1099.34Q661.52 1100.78 660.33 1101.81Q659.16 1102.82 657.63 1102.82ZM668 1097.64L674.43 1097.64L668.39 1134L661.96 1134L668 1097.64ZM681.03 1097.64L687.46 1097.64L681.42 1134L675 1134L681.03 1097.64ZM706.48 1097.64L712.91 1097.64L706.87 1134L700.44 1134L706.48 1097.64ZM725.48 1134.53Q721.38 1134.53 718.69 1132.81Q716.01 1131.09 714.93 1127.95Q713.86 1124.78 714.57 1120.52Q715.27 1116.32 717.4 1113.14Q719.53 1109.94 722.72 1108.17Q725.94 1106.37 729.83 1106.37Q733.18 1106.37 735.77 1107.83Q738.37 1109.28 739.57 1112.34Q740.78 1115.37 739.98 1120.15L739.68 1122.12L720.66 1122.12L720.65 1122.21Q720.04 1126.05 721.59 1127.79Q723.15 1129.53 726.4 1129.53Q728.51 1129.53 730.16 1128.64Q731.82 1127.75 732.77 1126.01L738.65 1126.68Q737.2 1130.24 733.72 1132.38Q730.25 1134.53 725.48 1134.53ZM721.43 1117.79L734.19 1117.79Q734.66 1115 733.27 1113.19Q731.89 1111.38 729.1 1111.38Q727.25 1111.38 725.64 1112.3Q724.02 1113.23 722.9 1114.7Q721.78 1116.16 721.43 1117.79ZM764.84 1106.73L771.77 1106.73L757.51 1134L750.41 1134L745.24 1106.73L752 1106.73L754.92 1126.99L755.2 1126.99L764.84 1106.73ZM782.72 1134.53Q778.62 1134.53 775.94 1132.81Q773.26 1131.09 772.17 1127.95Q771.11 1124.78 771.82 1120.52Q772.51 1116.32 774.64 1113.14Q776.77 1109.94 779.97 1108.17Q783.18 1106.37 787.07 1106.37Q790.43 1106.37 793.02 1107.83Q795.61 1109.28 796.82 1112.34Q798.03 1115.37 797.23 1120.15L796.93 1122.12L777.91 1122.12L777.89 1122.21Q777.29 1126.05 778.83 1127.79Q780.39 1129.53 783.64 1129.53Q785.76 1129.53 787.41 1128.64Q789.06 1127.75 790.02 1126.01L795.9 1126.68Q794.44 1130.24 790.96 1132.38Q787.5 1134.53 782.72 1134.53ZM778.67 1117.79L791.44 1117.79Q791.9 1115 790.52 1113.19Q789.13 1111.38 786.34 1111.38Q784.5 1111.38 782.88 1112.3Q781.26 1113.23 780.15 1114.7Q779.03 1116.16 778.67 1117.79ZM806.42 1097.64L812.85 1097.64L806.82 1134L800.39 1134L806.42 1097.64Z" />
			</g>
			<g id="Challenge Level">
				<path id="Low" fill="#000000" aria-label="Low"  d="M182.36 884.56L182.36 907.84L146 907.84L146 900.15L176.02 900.15L176.02 884.56L182.36 884.56ZM182.9 867.29Q182.9 871.42 181.14 874.44Q179.36 877.44 176.2 879.08Q173.02 880.71 168.83 880.71Q164.61 880.71 161.45 879.08Q158.27 877.44 156.51 874.44Q154.74 871.42 154.74 867.29Q154.74 863.15 156.51 860.15Q158.27 857.13 161.45 855.5Q164.61 853.86 168.83 853.86Q173.02 853.86 176.2 855.5Q179.36 857.13 181.14 860.15Q182.9 863.15 182.9 867.29ZM177.04 867.25Q177.04 865.37 175.97 864.11Q174.89 862.85 173.02 862.21Q171.16 861.55 168.78 861.55Q166.4 861.55 164.54 862.21Q162.67 862.85 161.59 864.11Q160.51 865.37 160.51 867.25Q160.51 869.15 161.59 870.45Q162.67 871.72 164.54 872.38Q166.4 873.02 168.78 873.02Q171.16 873.02 173.02 872.38Q174.89 871.72 175.97 870.45Q177.04 869.15 177.04 867.25ZM182.36 836.23L182.36 844.22L155.09 851.64L155.09 843.99L173.41 839.76L173.41 839.52L155.09 835.11L155.09 827.6L173.31 823.13L173.31 822.9L155.09 818.74L155.09 811.11L182.36 818.51L182.36 826.52L165.21 831.21L165.21 831.54L182.36 836.23Z" />
				<path id="Medium" fill="#000000" aria-label="Medium"  d="M184.36 597.84L148 597.84L148 588.36L172.43 578.34L172.43 577.92L148 567.9L148 558.42L184.36 558.42L184.36 565.88L160.7 565.88L160.7 566.18L184.19 575.59L184.19 580.67L160.61 590.08L160.61 590.38L184.36 590.38L184.36 597.84ZM184.9 539.81Q184.9 544.02 183.19 547.06Q181.47 550.08 178.33 551.71Q175.17 553.34 170.85 553.34Q166.64 553.34 163.47 551.71Q160.29 550.08 158.51 547.11Q156.74 544.13 156.74 540.12Q156.74 537.42 157.61 535.09Q158.46 532.75 160.18 531.01Q161.9 529.25 164.51 528.27Q167.11 527.3 170.59 527.3L172.66 527.3L172.66 550.33L167.98 550.33L167.98 534.42Q166.34 534.42 165.08 535.13Q163.82 535.84 163.11 537.1Q162.38 538.34 162.38 539.99Q162.38 541.71 163.18 543.05Q163.96 544.36 165.29 545.11Q166.61 545.85 168.22 545.87L172.68 545.87Q174.7 545.87 176.18 545.12Q177.65 544.36 178.45 542.97Q179.25 541.59 179.25 539.69Q179.25 538.43 178.89 537.38Q178.54 536.33 177.83 535.59Q177.12 534.84 176.09 534.45L176.55 527.46Q179.07 527.99 180.95 529.64Q182.82 531.27 183.87 533.87Q184.9 536.44 184.9 539.81ZM184.81 512.31Q184.81 515.42 183.21 517.94Q181.59 520.44 178.47 521.92Q175.33 523.37 170.76 523.37Q166.08 523.37 162.97 521.86Q159.84 520.35 158.3 517.85Q156.74 515.33 156.74 512.33Q156.74 510.04 157.52 508.51Q158.28 506.97 159.43 506.02Q160.57 505.07 161.67 504.57L161.67 504.34L148 504.34L148 496.79L184.36 496.79L184.36 504.25L180 504.25L180 504.57Q181.13 505.1 182.25 506.08Q183.35 507.04 184.08 508.58Q184.81 510.11 184.81 512.31ZM178.79 509.91Q178.79 508.08 177.79 506.82Q176.78 505.55 174.97 504.87Q173.16 504.18 170.73 504.18Q168.29 504.18 166.5 504.85Q164.71 505.53 163.73 506.81Q162.75 508.08 162.75 509.91Q162.75 511.78 163.77 513.06Q164.78 514.33 166.57 514.99Q168.37 515.65 170.73 515.65Q173.11 515.65 174.94 514.99Q176.75 514.32 177.78 513.06Q178.79 511.78 178.79 509.91ZM184.36 483.03L184.36 490.6L157.09 490.6L157.09 483.03L184.36 483.03ZM153.58 486.78Q153.58 488.46 152.46 489.67Q151.32 490.88 149.74 490.88Q148.18 490.88 147.06 489.67Q145.92 488.46 145.92 486.8Q145.92 485.09 147.06 483.9Q148.18 482.69 149.74 482.69Q151.32 482.69 152.46 483.9Q153.58 485.09 153.58 486.78ZM172.75 459.5L157.09 459.5L157.09 451.94L184.36 451.94L184.36 459.2L179.41 459.2L179.41 459.49Q181.81 460.41 183.26 462.56Q184.72 464.69 184.72 467.76Q184.72 470.5 183.48 472.57Q182.23 474.65 179.94 475.82Q177.65 476.98 174.46 476.99L157.09 476.99L157.09 469.43L173.11 469.43Q175.52 469.41 176.92 468.13Q178.33 466.86 178.33 464.71Q178.33 463.34 177.71 462.15Q177.07 460.96 175.82 460.23Q174.58 459.49 172.75 459.5ZM184.36 438.34L184.36 445.9L157.09 445.9L157.09 438.7L161.9 438.7L161.9 438.38Q159.51 437.52 158.12 435.53Q156.74 433.55 156.74 430.78Q156.74 427.97 158.14 426Q159.52 424.03 161.9 423.37L161.9 423.09Q159.56 422.25 158.16 420.07Q156.74 417.87 156.74 414.87Q156.74 411.05 159.17 408.67Q161.58 406.27 166.02 406.27L184.36 406.27L184.36 413.82L167.51 413.82Q165.24 413.82 164.1 415.03Q162.97 416.23 162.97 418.05Q162.97 420.11 164.28 421.26Q165.58 422.41 167.71 422.41L184.36 422.41L184.36 429.75L167.35 429.75Q165.35 429.75 164.16 430.9Q162.97 432.04 162.97 433.9Q162.97 435.16 163.61 436.17Q164.23 437.17 165.37 437.75Q166.48 438.34 167.99 438.34L184.36 438.34Z" />
				<path id="High" fill="#000000" aria-label="High"  d="M184.36 191.15L184.36 198.84L148 198.84L148 191.15L163 191.15L163 175.54L148 175.54L148 167.87L184.36 167.87L184.36 175.54L169.34 175.54L169.34 191.15L184.36 191.15ZM184.36 154.11L184.36 161.68L157.09 161.68L157.09 154.11L184.36 154.11ZM153.58 157.86Q153.58 159.55 152.46 160.75Q151.32 161.96 149.74 161.96Q148.18 161.96 147.06 160.75Q145.92 159.55 145.92 157.88Q145.92 156.17 147.06 154.98Q148.18 153.78 149.74 153.78Q151.32 153.78 152.46 154.98Q153.58 156.17 153.58 157.86ZM194.98 135.79Q194.98 139.46 193.99 142.09Q192.99 144.7 191.31 146.25Q189.62 147.79 187.56 148.25L186.62 141.26Q187.36 140.94 188.04 140.25Q188.7 139.55 189.12 138.42Q189.55 137.26 189.55 135.61Q189.55 133.14 188.38 131.55Q187.2 129.93 184.52 129.93L179.53 129.93L179.53 130.25Q180.67 130.75 181.68 131.74Q182.69 132.74 183.33 134.3Q183.97 135.86 183.97 138.03Q183.97 141.1 182.55 143.62Q181.11 146.12 178.17 147.61Q175.2 149.09 170.67 149.09Q166.04 149.09 162.93 147.58Q159.83 146.07 158.28 143.57Q156.74 141.04 156.74 138.04Q156.74 135.75 157.52 134.21Q158.28 132.66 159.43 131.72Q160.57 130.76 161.67 130.25L161.67 129.97L157.09 129.97L157.09 122.45L184.63 122.45Q188.04 122.45 190.35 124.16Q192.64 125.86 193.81 128.88Q194.98 131.88 194.98 135.79ZM178.29 135.63Q178.29 133.8 177.39 132.54Q176.46 131.26 174.76 130.59Q173.04 129.89 170.64 129.89Q168.24 129.89 166.48 130.57Q164.71 131.24 163.73 132.52Q162.75 133.8 162.75 135.63Q162.75 137.49 163.77 138.77Q164.76 140.05 166.54 140.71Q168.31 141.36 170.64 141.36Q173 141.36 174.72 140.71Q176.43 140.03 177.37 138.77Q178.29 137.49 178.29 135.63ZM168.6 108.85L184.36 108.85L184.36 116.42L148 116.42L148 109.07L161.9 109.07L161.9 108.75Q159.49 107.82 158.12 105.76Q156.74 103.7 156.74 100.6Q156.74 97.76 157.98 95.64Q159.2 93.51 161.51 92.34Q163.8 91.15 167 91.17L184.36 91.17L184.36 98.73L168.35 98.73Q165.83 98.72 164.42 100.01Q163.02 101.29 163.02 103.6Q163.02 105.14 163.68 106.33Q164.34 107.5 165.6 108.18Q166.84 108.84 168.6 108.85Z" />
				<path id="Challenge level" fill="#000000" aria-label="Challenge level"  d="M60.91 649.6L60.91 656.13Q57.64 656.15 55.85 658.16Q54.05 660.15 54.05 663.34Q54.05 666.4 55.6 669.03Q57.14 671.65 60.09 673.5Q63.02 675.33 67.21 676.02Q73.32 677.02 76.46 674.8Q79.58 672.58 79.58 668.33Q79.58 664.91 77.84 662.12Q76.1 659.33 72.93 658.16L72.93 651.54Q76.41 652.62 79.26 655.05Q82.11 657.47 83.81 660.93Q85.5 664.39 85.5 668.63Q85.5 673.52 83.22 676.98Q80.93 680.44 76.67 681.97Q72.39 683.48 66.43 682.5Q60.62 681.53 56.54 678.72Q52.45 675.91 50.31 671.88Q48.14 667.84 48.14 663.18Q48.14 659.06 49.65 655.98Q51.16 652.89 54.02 651.2Q56.86 649.49 60.91 649.6ZM69.02 638.7L85 641.33L85 647.77L48.64 641.74L48.64 635.43L62.36 637.7L62.36 637.37Q60.04 636.07 58.7 633.83Q57.37 631.58 57.37 628.42Q57.37 624.19 60.04 622.06Q62.68 619.93 67.63 620.73L85 623.64L85 630.09L68.63 627.35Q65.88 626.91 64.35 628.08Q62.81 629.24 62.81 631.74Q62.81 634.31 64.44 636.25Q66.05 638.18 69.02 638.7ZM85.55 609.37Q85.55 613.25 83.46 615.53Q81.36 617.8 77.35 617.14Q74.28 616.63 72.59 614.87Q70.88 613.1 70.12 610.61Q69.34 608.11 69.06 605.42Q68.66 601.77 68.31 600.13Q67.95 598.48 66.61 598.25L66.5 598.25Q64.49 597.93 63.39 598.89Q62.29 599.85 62.29 602.09Q62.29 604.43 63.32 606.03Q64.33 607.63 65.75 608.35L64.9 614.18Q61.17 612.53 59.27 609.1Q57.37 605.66 57.37 601.36Q57.37 599.41 57.83 597.54Q58.3 595.66 59.36 594.22Q60.43 592.76 62.24 592.09Q64.05 591.4 66.75 591.86L85 594.9L85 601.07L81.25 600.44L81.25 600.65Q82.98 601.78 84.27 603.97Q85.55 606.15 85.55 609.37ZM80.83 606.93Q80.83 604.04 79.16 602.05Q77.49 600.04 75.22 599.67L72 599.14Q72.34 599.6 72.61 600.74Q72.86 601.87 73.03 603.13Q73.21 604.38 73.33 605.23Q73.64 607.43 74.51 609.03Q75.38 610.63 77.24 610.91Q79 611.2 79.92 610.08Q80.83 608.94 80.83 606.93ZM48.64 582.38L48.64 575.95L85 581.99L85 588.41L48.64 582.38ZM48.64 569.35L48.64 562.92L85 568.95L85 575.38L48.64 569.35ZM85.53 550.35Q85.53 554.45 83.81 557.13Q82.09 559.81 78.95 560.89Q75.78 561.96 71.52 561.25Q67.32 560.56 64.14 558.43Q60.94 556.29 59.17 553.1Q57.37 549.88 57.37 546Q57.37 542.64 58.83 540.05Q60.28 537.46 63.34 536.25Q66.37 535.04 71.15 535.84L73.12 536.14L73.12 555.16L73.21 555.18Q77.05 555.78 78.79 554.24Q80.53 552.67 80.53 549.42Q80.53 547.31 79.64 545.66Q78.75 544.01 77.01 543.05L77.68 537.17Q81.24 538.63 83.38 542.11Q85.53 545.57 85.53 550.35ZM68.79 554.39L68.79 541.63Q66 541.17 64.19 542.55Q62.38 543.94 62.38 546.72Q62.38 548.57 63.3 550.19Q64.23 551.8 65.7 552.92Q67.16 554.04 68.79 554.39ZM69.02 523.59L85 526.22L85 532.66L57.73 528.12L57.73 521.96L62.36 522.74L62.36 522.4Q60.07 521.12 58.72 518.81Q57.37 516.49 57.37 513.43Q57.37 509.24 60.05 507.11Q62.72 504.98 67.63 505.8L85 508.71L85 515.14L68.63 512.42Q65.91 511.96 64.37 513.11Q62.81 514.25 62.81 516.77Q62.81 519.29 64.44 521.19Q66.05 523.07 69.02 523.59ZM95.69 492.04Q95.69 497.27 93.7 499.92Q91.69 502.55 88.91 502.99L87.5 496.96Q88.25 496.69 89.01 496.1Q89.78 495.5 90.31 494.33Q90.82 493.16 90.82 491.2Q90.82 488.47 89.51 486.43Q88.18 484.38 85.27 483.9L80.1 483.09L80.1 483.41Q81.09 484.05 82.14 485.17Q83.19 486.27 83.9 487.95Q84.61 489.62 84.61 491.97Q84.61 495.13 83.14 497.43Q81.64 499.73 78.68 500.74Q75.71 501.73 71.27 500.99Q66.78 500.24 63.69 498.23Q60.59 496.23 58.99 493.4Q57.37 490.58 57.37 487.44Q57.37 485.02 58.19 483.6Q58.99 482.18 60.12 481.45Q61.24 480.73 62.24 480.41L62.24 480.07L57.73 479.32L57.73 472.99L85.44 477.57Q88.89 478.13 91.16 480.18Q93.43 482.22 94.57 485.29Q95.69 488.36 95.69 492.04ZM79.57 489.41Q79.57 486.34 77.37 484.26Q75.15 482.18 71.24 481.54Q67.37 480.92 65.01 482.24Q62.65 483.55 62.65 486.64Q62.65 489.85 65.1 491.84Q67.53 493.83 71.24 494.45Q75 495.06 77.29 493.83Q79.57 492.61 79.57 489.41ZM85.53 458.92Q85.53 463.02 83.81 465.71Q82.09 468.39 78.95 469.47Q75.78 470.53 71.52 469.82Q67.32 469.13 64.14 467Q60.94 464.87 59.17 461.67Q57.37 458.46 57.37 454.57Q57.37 451.22 58.83 448.62Q60.28 446.03 63.34 444.82Q66.37 443.62 71.15 444.42L73.12 444.72L73.12 463.73L73.21 463.75Q77.05 464.36 78.79 462.81Q80.53 461.25 80.53 458Q80.53 455.89 79.64 454.24Q78.75 452.58 77.01 451.63L77.68 445.75Q81.24 447.2 83.38 450.68Q85.53 454.15 85.53 458.92ZM68.79 462.97L68.79 450.2Q66 449.74 64.19 451.13Q62.38 452.51 62.38 455.3Q62.38 457.15 63.3 458.76Q64.23 460.38 65.7 461.5Q67.16 462.62 68.79 462.97ZM48.64 422.81L48.64 416.38L85 422.42L85 428.84L48.64 422.81ZM85.53 403.81Q85.53 407.91 83.81 410.59Q82.09 413.27 78.95 414.36Q75.78 415.42 71.52 414.71Q67.32 414.02 64.14 411.89Q60.94 409.76 59.17 406.56Q57.37 403.35 57.37 399.46Q57.37 396.1 58.83 393.51Q60.28 390.92 63.34 389.71Q66.37 388.5 71.15 389.3L73.12 389.6L73.12 408.62L73.21 408.64Q77.05 409.24 78.79 407.7Q80.53 406.13 80.53 402.89Q80.53 400.77 79.64 399.12Q78.75 397.47 77.01 396.51L77.68 390.63Q81.24 392.09 83.38 395.57Q85.53 399.03 85.53 403.81ZM68.79 407.86L68.79 395.09Q66 394.63 64.19 396.01Q62.38 397.4 62.38 400.19Q62.38 402.03 63.3 403.65Q64.23 405.26 65.7 406.38Q67.16 407.5 68.79 407.86ZM57.73 364.44L57.73 357.52L85 371.78L85 378.88L57.73 384.05L57.73 377.28L77.99 374.37L77.99 374.09L57.73 364.44ZM85.53 346.56Q85.53 350.67 83.81 353.35Q82.09 356.03 78.95 357.11Q75.78 358.18 71.52 357.47Q67.32 356.77 64.14 354.64Q60.94 352.51 59.17 349.32Q57.37 346.1 57.37 342.21Q57.37 338.86 58.83 336.27Q60.28 333.67 63.34 332.47Q66.37 331.26 71.15 332.06L73.12 332.36L73.12 351.38L73.21 351.39Q77.05 352 78.79 350.45Q80.53 348.89 80.53 345.64Q80.53 343.53 79.64 341.88Q78.75 340.23 77.01 339.27L77.68 333.39Q81.24 334.85 83.38 338.33Q85.53 341.79 85.53 346.56ZM68.79 350.61L68.79 337.85Q66 337.38 64.19 338.77Q62.38 340.15 62.38 342.94Q62.38 344.79 63.3 346.4Q64.23 348.02 65.7 349.14Q67.16 350.26 68.79 350.61ZM48.64 322.86L48.64 316.43L85 322.47L85 328.9L48.64 322.86Z" />
			</g>
		</g>
		<g id="Mental state labels">
			<path id="Relaxation" fill="#000000" aria-label="Relaxation"  d="M842.6 662.71L837.01 657.12L867.86 626.26L879.43 637.83Q882.99 641.39 884.16 645.04Q885.35 648.7 884.36 652.16Q883.4 655.63 880.44 658.58Q877.47 661.55 874.02 662.47Q870.6 663.39 866.97 662.14Q863.36 660.87 859.8 657.32L851.56 649.07L856.2 644.43L863.69 651.92Q865.77 654 867.67 654.75Q869.58 655.49 871.33 655.01Q873.11 654.53 874.75 652.89Q876.39 651.24 876.9 649.44Q877.43 647.61 876.71 645.68Q876 643.74 873.9 641.65L868.78 636.52L842.6 662.71ZM860.83 652.98L866.93 659.08L860.59 680.7L854.35 674.46L860.83 652.98ZM873.83 694.85Q870.35 691.36 869.26 687.39Q868.21 683.41 869.52 679.39Q870.85 675.35 874.48 671.72Q878.05 668.15 882.1 666.81Q886.18 665.47 890.15 666.42Q894.12 667.35 897.44 670.66Q899.58 672.8 900.78 675.39Q902.02 677.99 902.05 680.88Q902.09 683.79 900.72 686.85Q899.37 689.89 896.32 692.93L894.65 694.6L875.68 675.64L879.36 671.96L893.1 685.7Q894.65 684.12 895.21 682.23Q895.78 680.34 895.3 678.44Q894.83 676.55 893.26 674.99Q891.59 673.32 889.51 672.86Q887.45 672.4 885.43 673Q883.44 673.6 881.87 675.14L878.66 678.35Q876.65 680.37 875.94 682.55Q875.24 684.72 875.8 686.81Q876.37 688.89 878.15 690.67Q879.34 691.86 880.64 692.49Q881.95 693.11 883.32 693.16Q884.69 693.2 886.03 692.59L890.55 698.25Q888.05 699.79 885.19 699.94Q882.36 700.09 879.43 698.82Q876.53 697.54 873.83 694.85ZM920.04 678.44L925.49 683.89L894.63 714.75L889.18 709.29L920.04 678.44ZM906.43 727.48Q904.23 725.28 903.25 722.73Q902.3 720.19 902.83 717.61Q903.37 715.05 905.65 712.77Q907.61 710.82 909.61 710.26Q911.61 709.7 913.63 710.18Q915.65 710.66 917.61 711.84Q919.6 713.02 921.47 714.52Q923.71 716.34 925.14 717.44Q926.59 718.53 927.52 718.74Q928.49 718.95 929.27 718.17L929.36 718.08Q931.07 716.37 930.99 714.43Q930.91 712.49 929.02 710.59Q927.01 708.59 924.96 708.28Q922.93 708 921.33 708.78L916.96 702.97Q919.68 701.46 922.48 701.43Q925.29 701.38 928.01 702.68Q930.73 703.96 933.16 706.39Q934.83 708.06 936.1 710.11Q937.36 712.16 937.83 714.43Q938.31 716.69 937.6 719.06Q936.91 721.44 934.61 723.74L919.12 739.23L913.87 733.99L917.05 730.81L916.87 730.63Q915.41 731.09 913.66 731.03Q911.95 730.97 910.08 730.13Q908.24 729.29 906.43 727.48ZM911.86 724.89Q913.5 726.53 915.35 727.09Q917.22 727.63 918.95 727.19Q920.7 726.77 921.98 725.49L924.71 722.76Q924.24 722.72 923.44 722.28Q922.66 721.86 921.77 721.24Q920.88 720.62 920.04 719.99Q919.19 719.36 918.58 718.89Q917.19 717.84 915.85 717.25Q914.51 716.66 913.27 716.78Q912.05 716.89 911 717.94Q909.49 719.45 909.82 721.32Q910.15 723.18 911.86 724.89ZM946.43 720.26L952.22 726.05L948.35 739.26L961.63 735.46L967.4 741.23L948.86 745.83L944.38 764.5L938.64 758.76L942.08 745.53L928.9 749.01L923.11 743.22L941.73 738.7L946.43 720.26ZM954.6 775.65Q952.4 773.45 951.42 770.9Q950.47 768.35 951 765.78Q951.54 763.22 953.82 760.94Q955.77 758.98 957.78 758.42Q959.78 757.87 961.8 758.35Q963.82 758.83 965.78 760.01Q967.77 761.18 969.63 762.69Q971.88 764.51 973.31 765.61Q974.76 766.7 975.69 766.91Q976.66 767.12 977.44 766.33L977.53 766.24Q979.23 764.54 979.16 762.6Q979.08 760.65 977.18 758.76Q975.18 756.75 973.13 756.45Q971.1 756.16 969.5 756.95L965.13 751.13Q967.84 749.63 970.64 749.6Q973.46 749.55 976.17 750.85Q978.9 752.13 981.33 754.55Q983 756.22 984.26 758.27Q985.53 760.32 986 762.6Q986.48 764.86 985.77 767.22Q985.08 769.6 982.77 771.91L967.28 787.4L962.04 782.15L965.22 778.97L965.04 778.79Q963.58 779.26 961.83 779.2Q960.11 779.14 958.24 778.3Q956.41 777.45 954.6 775.65ZM960.02 773.05Q961.66 774.7 963.52 775.25Q965.39 775.8 967.12 775.36Q968.87 774.94 970.15 773.66L972.87 770.93Q972.41 770.88 971.61 770.45Q970.82 770.03 969.94 769.41Q969.05 768.79 968.2 768.16Q967.36 767.52 966.74 767.06Q965.36 766 964.01 765.42Q962.67 764.83 961.44 764.95Q960.22 765.05 959.16 766.11Q957.66 767.61 957.99 769.48Q958.32 771.35 960.02 773.05ZM994.18 768.01L1007.48 781.31L1003.26 785.53L989.96 772.23L994.18 768.01ZM980.38 788.38L1003.01 765.75L1008.46 771.2L986.73 792.93Q985.63 794.03 985.38 794.95Q985.15 795.86 985.5 796.63Q985.85 797.4 986.52 798.08Q987.04 798.59 987.53 798.94Q988.05 799.3 988.33 799.46L984.99 804.65Q984.4 804.36 983.41 803.73Q982.43 803.11 981.24 801.98Q979.13 799.99 978.16 797.67Q977.21 795.34 977.69 792.93Q978.19 790.53 980.38 788.38ZM994.36 814.47L988.9 809.02L1012.05 785.88L1017.5 791.33L994.36 814.47ZM1018.07 785.33Q1016.76 784.02 1016.69 782.23Q1016.64 780.44 1017.86 779.22Q1019.1 777.98 1020.89 778.06Q1022.7 778.12 1023.99 779.41Q1025.29 780.71 1025.33 782.5Q1025.41 784.29 1024.17 785.53Q1022.95 786.75 1021.15 786.69Q1019.37 786.63 1018.07 785.33ZM1009.61 830.62Q1006.22 827.23 1005.22 823.25Q1004.23 819.28 1005.54 815.22Q1006.86 811.19 1010.45 807.6Q1014.03 804.01 1018.09 802.67Q1022.16 801.35 1026.13 802.34Q1030.11 803.34 1033.5 806.73Q1036.89 810.12 1037.88 814.09Q1038.88 818.07 1037.54 822.12Q1036.21 826.19 1032.63 829.78Q1029.04 833.36 1024.99 834.67Q1020.95 836 1016.97 835.01Q1013 834.01 1009.61 830.62ZM1014 826.28Q1015.84 828.12 1018.09 828.35Q1020.35 828.56 1022.67 827.44Q1025 826.34 1027.11 824.23Q1029.24 822.11 1030.34 819.77Q1031.47 817.44 1031.26 815.18Q1031.04 812.92 1029.21 811.08Q1027.32 809.2 1025.05 808.97Q1022.79 808.76 1020.44 809.88Q1018.12 810.99 1015.99 813.11Q1013.88 815.22 1012.77 817.54Q1011.67 819.88 1011.88 822.14Q1012.12 824.4 1014 826.28ZM1044.77 837.76L1031.21 851.32L1025.76 845.87L1048.9 822.73L1054.11 827.94L1050.18 831.87L1050.45 832.14Q1053.19 831 1056.08 831.6Q1058.99 832.22 1061.58 834.81Q1063.98 837.21 1064.73 840.01Q1065.5 842.83 1064.54 845.75Q1063.59 848.69 1060.8 851.44L1046.07 866.18L1040.61 860.72L1054.5 846.83Q1056.82 844.51 1056.93 842Q1057.05 839.5 1054.94 837.39Q1053.51 835.96 1051.76 835.47Q1050.04 834.99 1048.23 835.53Q1046.44 836.09 1044.77 837.76Z" />
			<path id="Boredom" fill="#000000" aria-label="Boredom"  d="M591.97 894L574.3 894L574.3 850.36L591.01 850.36Q595.74 850.36 598.87 851.86Q602.02 853.33 603.58 855.88Q605.16 858.44 605.16 861.68Q605.16 864.34 604.13 866.24Q603.11 868.11 601.38 869.28Q599.66 870.46 597.53 870.97L597.53 871.39Q599.85 871.52 601.98 872.82Q604.13 874.1 605.5 876.44Q606.86 878.79 606.86 882.11Q606.86 885.5 605.22 888.2Q603.58 890.89 600.28 892.44Q596.97 894 591.97 894ZM582.21 874.61L582.21 887.39L590.71 887.39Q595.01 887.39 596.91 885.75Q598.83 884.09 598.83 881.49Q598.83 879.55 597.87 878Q596.91 876.42 595.14 875.53Q593.37 874.61 590.92 874.61L582.21 874.61ZM582.21 856.88L582.21 868.92L590.03 868.92Q592.07 868.92 593.71 868.18Q595.36 867.41 596.29 866.02Q597.25 864.62 597.25 862.7Q597.25 860.16 595.46 858.52Q593.69 856.88 590.2 856.88L582.21 856.88ZM627.68 894.64Q622.88 894.64 619.37 892.53Q615.85 890.42 613.91 886.63Q612 882.84 612 877.76Q612 872.69 613.91 868.88Q615.85 865.07 619.37 862.96Q622.88 860.85 627.68 860.85Q632.47 860.85 635.99 862.96Q639.5 865.07 641.42 868.88Q643.36 872.69 643.36 877.76Q643.36 882.84 641.42 886.63Q639.5 890.42 635.99 892.53Q632.47 894.64 627.68 894.64ZM627.72 888.46Q630.32 888.46 632.07 887.03Q633.81 885.58 634.67 883.15Q635.54 880.73 635.54 877.74Q635.54 874.74 634.67 872.31Q633.81 869.86 632.07 868.41Q630.32 866.96 627.72 866.96Q625.06 866.96 623.29 868.41Q621.54 869.86 620.67 872.31Q619.82 874.74 619.82 877.74Q619.82 880.73 620.67 883.15Q621.54 885.58 623.29 887.03Q625.06 888.46 627.72 888.46ZM657.59 894L649.88 894L649.88 861.27L657.36 861.27L657.36 866.73L657.7 866.73Q658.59 863.89 660.77 862.36Q662.96 860.8 665.77 860.8Q666.41 860.8 667.2 860.87Q668.01 860.91 668.54 861.02L668.54 868.11Q668.05 867.94 666.99 867.81Q665.94 867.66 664.96 867.66Q662.86 867.66 661.17 868.58Q659.51 869.48 658.55 871.07Q657.59 872.67 657.59 874.76L657.59 894ZM686.8 894.64Q681.88 894.64 678.3 892.59Q674.74 890.53 672.83 886.76Q670.91 882.96 670.91 877.83Q670.91 872.78 672.83 868.96Q674.77 865.13 678.24 863Q681.71 860.85 686.4 860.85Q689.42 860.85 692.11 861.83Q694.82 862.79 696.88 864.81Q698.97 866.83 700.16 869.97Q701.36 873.08 701.36 877.38L701.36 879.75L674.53 879.75L674.53 874.55L693.96 874.55Q693.94 872.33 693 870.61Q692.07 868.86 690.38 867.86Q688.72 866.86 686.51 866.86Q684.14 866.86 682.35 868.01Q680.56 869.13 679.56 870.99Q678.58 872.82 678.56 875.02L678.56 879.55Q678.56 882.41 679.6 884.45Q680.65 886.48 682.52 887.57Q684.4 888.63 686.91 888.63Q688.59 888.63 689.96 888.16Q691.32 887.67 692.32 886.73Q693.32 885.8 693.84 884.41L701.04 885.22Q700.36 888.08 698.44 890.21Q696.54 892.32 693.58 893.49Q690.62 894.64 686.8 894.64ZM720.02 894.58Q716.16 894.58 713.12 892.59Q710.07 890.61 708.3 886.84Q706.53 883.07 706.53 877.68Q706.53 872.22 708.32 868.47Q710.13 864.7 713.2 862.79Q716.27 860.85 720.04 860.85Q722.92 860.85 724.77 861.83Q726.63 862.79 727.71 864.15Q728.8 865.49 729.4 866.68L729.72 866.68L729.72 850.36L737.45 850.36L737.45 894L729.87 894L729.87 888.84L729.4 888.84Q728.8 890.04 727.67 891.38Q726.54 892.7 724.69 893.64Q722.83 894.58 720.02 894.58ZM722.17 888.25Q724.62 888.25 726.35 886.93Q728.08 885.58 728.97 883.2Q729.87 880.81 729.87 877.64Q729.87 874.46 728.97 872.12Q728.1 869.77 726.37 868.47Q724.67 867.17 722.17 867.17Q719.6 867.17 717.87 868.52Q716.14 869.86 715.27 872.22Q714.4 874.59 714.4 877.64Q714.4 880.7 715.27 883.11Q716.16 885.5 717.89 886.88Q719.64 888.25 722.17 888.25ZM759.97 894.64Q755.18 894.64 751.66 892.53Q748.15 890.42 746.21 886.63Q744.29 882.84 744.29 877.76Q744.29 872.69 746.21 868.88Q748.15 865.07 751.66 862.96Q755.18 860.85 759.97 860.85Q764.77 860.85 768.28 862.96Q771.8 865.07 773.71 868.88Q775.65 872.69 775.65 877.76Q775.65 882.84 773.71 886.63Q771.8 890.42 768.28 892.53Q764.77 894.64 759.97 894.64ZM760.01 888.46Q762.61 888.46 764.36 887.03Q766.11 885.58 766.96 883.15Q767.83 880.73 767.83 877.74Q767.83 874.74 766.96 872.31Q766.11 869.86 764.36 868.41Q762.61 866.96 760.01 866.96Q757.35 866.96 755.58 868.41Q753.84 869.86 752.96 872.31Q752.11 874.74 752.11 877.74Q752.11 880.73 752.96 883.15Q753.84 885.58 755.58 887.03Q757.35 888.46 760.01 888.46ZM789.89 894L782.17 894L782.17 861.27L789.55 861.27L789.55 866.83L789.93 866.83Q790.95 864.02 793.32 862.44Q795.68 860.85 798.96 860.85Q802.29 860.85 804.57 862.47Q806.87 864.06 807.81 866.83L808.15 866.83Q809.23 864.11 811.81 862.49Q814.41 860.85 817.97 860.85Q822.49 860.85 825.34 863.7Q828.2 866.56 828.2 872.03L828.2 894L820.46 894L820.46 873.23Q820.46 870.18 818.84 868.77Q817.22 867.35 814.88 867.35Q812.09 867.35 810.51 869.09Q808.96 870.82 808.96 873.59L808.96 894L801.39 894L801.39 872.91Q801.39 870.37 799.86 868.86Q798.35 867.35 795.89 867.35Q794.23 867.35 792.87 868.2Q791.51 869.03 790.7 870.56Q789.89 872.08 789.89 874.1L789.89 894Z" />
			<path id="Apathy" fill="#000000" aria-label="Apathy"  d="M384.06 792.09L400.37 824.85L394.4 830.81L374.41 789.09L381.31 782.19L423.04 802.17L417.07 808.14L384.31 791.85L384.06 792.09ZM392.95 817.04L388.46 812.55L404.74 796.28L409.23 800.77L392.95 817.04ZM441 801.57L435.55 807.02L403.73 775.2L409.09 769.84L412.92 773.67L413.23 773.35Q412.81 772.09 412.63 770.37Q412.43 768.64 413.07 766.65Q413.68 764.64 415.72 762.61Q418.4 759.93 421.93 759.14Q425.45 758.33 429.38 759.73Q433.32 761.1 437.17 764.96Q440.98 768.77 442.4 772.69Q443.82 776.61 443.06 780.16Q442.31 783.72 439.58 786.44Q437.59 788.43 435.62 789.08Q433.65 789.73 431.91 789.59Q430.18 789.43 428.9 789.02L428.68 789.25L441 801.57ZM420.65 781.43Q422.89 783.67 425.21 784.73Q427.55 785.77 429.7 785.51Q431.85 785.22 433.59 783.49Q435.4 781.68 435.65 779.5Q435.89 777.3 434.82 774.99Q433.75 772.66 431.58 770.49Q429.43 768.33 427.14 767.28Q424.85 766.22 422.68 766.5Q420.51 766.77 418.69 768.59Q416.94 770.34 416.64 772.48Q416.34 774.62 417.36 776.91Q418.4 779.18 420.65 781.43ZM460.5 765.65Q458.3 767.85 455.75 768.83Q453.2 769.78 450.63 769.25Q448.07 768.71 445.79 766.44Q443.83 764.48 443.27 762.47Q442.72 760.47 443.2 758.45Q443.68 756.43 444.86 754.47Q446.03 752.48 447.54 750.62Q449.36 748.37 450.46 746.94Q451.55 745.49 451.76 744.56Q451.97 743.6 451.18 742.81L451.09 742.72Q449.39 741.02 447.45 741.09Q445.5 741.17 443.61 743.07Q441.6 745.07 441.3 747.12Q441.01 749.15 441.8 750.75L435.98 755.12Q434.48 752.41 434.45 749.61Q434.4 746.79 435.7 744.08Q436.98 741.35 439.4 738.92Q441.08 737.25 443.12 735.99Q445.17 734.72 447.45 734.25Q449.71 733.77 452.07 734.48Q454.45 735.17 456.76 737.48L472.25 752.97L467 758.21L463.82 755.03L463.64 755.21Q464.11 756.67 464.05 758.42Q463.99 760.14 463.15 762.01Q462.3 763.84 460.5 765.65ZM457.9 760.23Q459.55 758.59 460.1 756.73Q460.65 754.86 460.21 753.13Q459.79 751.38 458.51 750.1L455.78 747.38Q455.73 747.84 455.3 748.64Q454.88 749.43 454.26 750.31Q453.64 751.2 453.01 752.05Q452.37 752.89 451.91 753.51Q450.85 754.89 450.27 756.24Q449.68 757.58 449.8 758.81Q449.9 760.03 450.96 761.09Q452.47 762.59 454.33 762.26Q456.2 761.93 457.9 760.23ZM452.86 726.07L466.16 712.77L470.38 716.99L457.08 730.29L452.86 726.07ZM473.23 739.87L450.6 717.24L456.05 711.79L477.78 733.52Q478.88 734.62 479.8 734.87Q480.71 735.1 481.48 734.75Q482.25 734.4 482.93 733.73Q483.44 733.21 483.79 732.72Q484.15 732.2 484.32 731.92L489.5 735.26Q489.21 735.85 488.58 736.85Q487.96 737.82 486.83 739.01Q484.84 741.12 482.52 742.09Q480.19 743.04 477.78 742.56Q475.38 742.06 473.23 739.87ZM486.24 711.85L499.8 725.41L494.35 730.86L463.49 700.01L468.83 694.68L480.47 706.32L480.74 706.05Q479.6 703.28 480.17 700.45Q480.74 697.58 483.4 694.93Q485.81 692.52 488.61 691.74Q491.41 690.95 494.33 691.92Q497.27 692.87 500.07 695.67L514.81 710.4L509.36 715.86L495.46 701.97Q493.13 699.63 490.63 699.54Q488.13 699.42 485.97 701.58Q484.53 703.02 484.01 704.8Q483.5 706.55 484.03 708.37Q484.57 710.18 486.24 711.85ZM531.53 710.95Q530.42 712.06 529.3 712.84Q528.19 713.6 527.39 713.91L524.42 708.42Q526.71 707.15 527.59 705.61Q528.46 704.05 527.33 701.35L526.55 699.63L494.53 684.4L500.32 678.61L523.13 690.76L523.37 690.52L511.24 667.69L517.1 661.89L533.72 697.1Q534.88 699.56 535.12 701.94Q535.36 704.32 534.52 706.58Q533.67 708.81 531.53 710.95Z" />
			<path id="Control" fill="#000000" aria-label="Control"  d="M929.65 490.09L921.69 490.09Q921.35 488.13 920.43 486.61Q919.51 485.08 918.15 484.01Q916.79 482.95 915.04 482.42Q913.31 481.86 911.31 481.86Q907.75 481.86 905 483.65Q902.25 485.42 900.7 488.85Q899.14 492.26 899.14 497.18Q899.14 502.19 900.7 505.62Q902.28 509.03 905 510.78Q907.75 512.5 911.29 512.5Q913.25 512.5 914.95 511.99Q916.68 511.46 918.04 510.43Q919.43 509.41 920.37 507.92Q921.32 506.43 921.69 504.51L929.65 504.55Q929.21 507.66 927.72 510.39Q926.25 513.12 923.86 515.21Q921.47 517.27 918.28 518.45Q915.08 519.6 911.18 519.6Q905.43 519.6 900.91 516.93Q896.39 514.27 893.8 509.24Q891.2 504.21 891.2 497.18Q891.2 490.13 893.82 485.12Q896.44 480.09 900.95 477.43Q905.47 474.77 911.18 474.77Q914.83 474.77 917.96 475.79Q921.09 476.81 923.54 478.79Q925.99 480.75 927.57 483.61Q929.16 486.44 929.65 490.09ZM950.86 519.64Q946.06 519.64 942.55 517.53Q939.03 515.42 937.09 511.63Q935.17 507.84 935.17 502.76Q935.17 497.69 937.09 493.88Q939.03 490.07 942.55 487.96Q946.06 485.85 950.86 485.85Q955.65 485.85 959.16 487.96Q962.68 490.07 964.6 493.88Q966.54 497.69 966.54 502.76Q966.54 507.84 964.6 511.63Q962.68 515.42 959.16 517.53Q955.65 519.64 950.86 519.64ZM950.9 513.46Q953.5 513.46 955.24 512.03Q956.99 510.58 957.84 508.15Q958.72 505.73 958.72 502.74Q958.72 499.74 957.84 497.31Q956.99 494.86 955.24 493.41Q953.5 491.96 950.9 491.96Q948.23 491.96 946.47 493.41Q944.72 494.86 943.85 497.31Q942.99 499.74 942.99 502.74Q942.99 505.73 943.85 508.15Q944.72 510.58 946.47 512.03Q948.23 513.46 950.9 513.46ZM980.77 499.82L980.77 519L973.06 519L973.06 486.27L980.43 486.27L980.43 491.83L980.81 491.83Q981.94 489.09 984.41 487.47Q986.91 485.85 990.57 485.85Q993.96 485.85 996.47 487.3Q999.01 488.74 1000.39 491.49Q1001.8 494.24 1001.78 498.16L1001.78 519L994.07 519L994.07 499.36Q994.07 496.07 992.36 494.22Q990.68 492.37 987.69 492.37Q985.67 492.37 984.09 493.26Q982.54 494.13 981.64 495.8Q980.77 497.46 980.77 499.82ZM1007.17 486.27L1025.98 486.27L1025.98 492.24L1007.17 492.24L1007.17 486.27ZM1011.81 510.43L1011.81 478.43L1019.53 478.43L1019.53 509.16Q1019.53 510.71 1020 511.54Q1020.49 512.35 1021.27 512.65Q1022.06 512.95 1023.02 512.95Q1023.75 512.95 1024.34 512.84Q1024.96 512.74 1025.28 512.65L1026.58 518.68Q1025.96 518.89 1024.81 519.15Q1023.68 519.4 1022.04 519.45Q1019.14 519.53 1016.82 518.57Q1014.5 517.59 1013.13 515.55Q1011.79 513.5 1011.81 510.43ZM1040.15 519L1032.44 519L1032.44 486.27L1039.92 486.27L1039.92 491.73L1040.26 491.73Q1041.15 488.89 1043.33 487.36Q1045.52 485.8 1048.33 485.8Q1048.97 485.8 1049.76 485.87Q1050.57 485.91 1051.1 486.02L1051.1 493.11Q1050.61 492.94 1049.55 492.81Q1048.5 492.66 1047.52 492.66Q1045.41 492.66 1043.73 493.58Q1042.07 494.48 1041.11 496.07Q1040.15 497.67 1040.15 499.76L1040.15 519ZM1069.15 519.64Q1064.36 519.64 1060.84 517.53Q1057.33 515.42 1055.39 511.63Q1053.47 507.84 1053.47 502.76Q1053.47 497.69 1055.39 493.88Q1057.33 490.07 1060.84 487.96Q1064.36 485.85 1069.15 485.85Q1073.94 485.85 1077.46 487.96Q1080.98 490.07 1082.89 493.88Q1084.83 497.69 1084.83 502.76Q1084.83 507.84 1082.89 511.63Q1080.98 515.42 1077.46 517.53Q1073.94 519.64 1069.15 519.64ZM1069.19 513.46Q1071.79 513.46 1073.54 512.03Q1075.29 510.58 1076.14 508.15Q1077.01 505.73 1077.01 502.74Q1077.01 499.74 1076.14 497.31Q1075.29 494.86 1073.54 493.41Q1071.79 491.96 1069.19 491.96Q1066.53 491.96 1064.76 493.41Q1063.01 494.86 1062.14 497.31Q1061.29 499.74 1061.29 502.74Q1061.29 505.73 1062.14 508.15Q1063.01 510.58 1064.76 512.03Q1066.53 513.46 1069.19 513.46ZM1091.35 475.36L1099.07 475.36L1099.07 519L1091.35 519L1091.35 475.36Z" />
			<path id="Worry" fill="#000000" aria-label="Worry"  d="M325.29 513L317.49 513L305.17 469.36L313.67 469.36L321.54 501.43L321.94 501.43L330.34 469.36L338.07 469.36L346.49 501.45L346.87 501.45L354.73 469.36L363.23 469.36L350.92 513L343.12 513L334.38 482.38L334.04 482.38L325.29 513ZM379.28 513.64Q374.48 513.64 370.97 511.53Q367.45 509.42 365.51 505.63Q363.6 501.84 363.6 496.76Q363.6 491.69 365.51 487.88Q367.45 484.07 370.97 481.96Q374.48 479.85 379.28 479.85Q384.07 479.85 387.59 481.96Q391.1 484.07 393.02 487.88Q394.96 491.69 394.96 496.76Q394.96 501.84 393.02 505.63Q391.1 509.42 387.59 511.53Q384.07 513.64 379.28 513.64ZM379.32 507.46Q381.92 507.46 383.67 506.03Q385.41 504.58 386.27 502.15Q387.14 499.73 387.14 496.74Q387.14 493.74 386.27 491.31Q385.41 488.86 383.67 487.41Q381.92 485.96 379.32 485.96Q376.66 485.96 374.89 487.41Q373.14 488.86 372.27 491.31Q371.41 493.74 371.41 496.74Q371.41 499.73 372.27 502.15Q373.14 504.58 374.89 506.03Q376.66 507.46 379.32 507.46ZM409.19 513L401.48 513L401.48 480.27L408.96 480.27L408.96 485.73L409.3 485.73Q410.19 482.89 412.37 481.36Q414.56 479.8 417.37 479.8Q418.01 479.8 418.8 479.87Q419.61 479.91 420.14 480.02L420.14 487.11Q419.65 486.94 418.59 486.81Q417.54 486.66 416.56 486.66Q414.45 486.66 412.77 487.58Q411.11 488.48 410.15 490.07Q409.19 491.67 409.19 493.76L409.19 513ZM432.99 513L425.28 513L425.28 480.27L432.76 480.27L432.76 485.73L433.1 485.73Q433.99 482.89 436.17 481.36Q438.36 479.8 441.17 479.8Q441.81 479.8 442.6 479.87Q443.41 479.91 443.94 480.02L443.94 487.11Q443.45 486.94 442.39 486.81Q441.34 486.66 440.36 486.66Q438.25 486.66 436.57 487.58Q434.91 488.48 433.95 490.07Q432.99 491.67 432.99 493.76L432.99 513ZM454.89 525.21Q453.32 525.21 451.98 524.97Q450.65 524.72 449.87 524.38L451.66 518.39Q454.17 519.12 455.88 518.65Q457.6 518.16 458.71 515.45L459.37 513.68L447.5 480.27L455.68 480.27L463.23 504.99L463.57 504.99L471.13 480.27L479.38 480.32L466.23 516.96Q465.31 519.52 463.8 521.37Q462.29 523.23 460.09 524.23Q457.92 525.21 454.89 525.21Z" />
			<path id="Flow" fill="#000000" aria-label="Flow"  d="M928.98 300.71L923.4 306.3L892.54 275.45L912.31 255.68L916.99 260.37L902.81 274.54L911.19 282.92L924.01 270.1L928.7 274.78L915.88 287.61L928.98 300.71ZM917.14 250.84L922.6 245.39L953.45 276.25L948 281.7L917.14 250.84ZM969.6 261Q966.21 264.39 962.24 265.38Q958.26 266.38 954.21 265.07Q950.17 263.74 946.58 260.16Q943 256.57 941.66 252.52Q940.33 248.45 941.32 244.47Q942.32 240.49 945.71 237.1Q949.1 233.71 953.08 232.72Q957.05 231.73 961.11 233.07Q965.17 234.39 968.76 237.98Q972.35 241.56 973.66 245.62Q974.98 249.65 973.99 253.63Q972.99 257.61 969.6 261ZM965.26 256.6Q967.1 254.76 967.33 252.52Q967.54 250.26 966.42 247.94Q965.32 245.6 963.22 243.49Q961.09 241.37 958.76 240.27Q956.42 239.14 954.16 239.35Q951.9 239.56 950.06 241.4Q948.18 243.28 947.95 245.56Q947.74 247.82 948.86 250.17Q949.97 252.49 952.1 254.61Q954.21 256.72 956.53 257.84Q958.86 258.94 961.12 258.72Q963.38 258.48 965.26 256.6ZM994.69 235.01L988.99 240.71L959.31 224.1L964.87 218.54L985.21 230.75L985.42 230.54L973.31 210.11L978.81 204.61L999.15 216.63L999.37 216.4L987.2 196.21L992.77 190.64L1009.36 220.34L1003.68 226.02L983.71 214.72L983.39 215.03L994.69 235.01Z" />
			<path id="Arousal" fill="#000000" aria-label="Arousal"  d="M614.54 109.31L602.91 144L594.47 144L609.83 100.36L619.59 100.36L634.97 144L626.54 144L614.88 109.31L614.54 109.31ZM603.18 133.24L603.18 126.89L626.2 126.89L626.2 133.24L603.18 133.24ZM648.1 144L640.39 144L640.39 111.27L647.87 111.27L647.87 116.73L648.21 116.73Q649.1 113.89 651.27 112.36Q653.47 110.8 656.28 110.8Q656.92 110.8 657.71 110.87Q658.52 110.91 659.05 111.02L659.05 118.11Q658.56 117.94 657.5 117.81Q656.45 117.66 655.47 117.66Q653.36 117.66 651.68 118.58Q650.02 119.48 649.06 121.07Q648.1 122.67 648.1 124.76L648.1 144ZM677.1 144.64Q672.3 144.64 668.79 142.53Q665.27 140.42 663.33 136.63Q661.42 132.84 661.42 127.76Q661.42 122.69 663.33 118.88Q665.27 115.07 668.79 112.96Q672.3 110.85 677.1 110.85Q681.89 110.85 685.41 112.96Q688.92 115.07 690.84 118.88Q692.78 122.69 692.78 127.76Q692.78 132.84 690.84 136.63Q688.92 140.42 685.41 142.53Q681.89 144.64 677.1 144.64ZM677.14 138.46Q679.74 138.46 681.49 137.03Q683.23 135.58 684.09 133.15Q684.96 130.73 684.96 127.74Q684.96 124.74 684.09 122.31Q683.23 119.86 681.49 118.41Q679.74 116.96 677.14 116.96Q674.48 116.96 672.71 118.41Q670.96 119.86 670.09 122.31Q669.24 124.74 669.24 127.74Q669.24 130.73 670.09 133.15Q670.96 135.58 672.71 137.03Q674.48 138.46 677.14 138.46ZM720.16 130.24L720.16 111.27L727.87 111.27L727.87 144L720.39 144L720.39 138.18L720.05 138.18Q718.94 140.93 716.41 142.68Q713.89 144.43 710.21 144.43Q706.99 144.43 704.52 143Q702.07 141.55 700.68 138.8Q699.3 136.03 699.3 132.11L699.3 111.27L707.01 111.27L707.01 130.92Q707.01 134.03 708.72 135.86Q710.42 137.69 713.19 137.69Q714.9 137.69 716.49 136.86Q718.09 136.03 719.12 134.39Q720.16 132.73 720.16 130.24ZM761.66 119.92L754.63 120.69Q754.34 119.63 753.59 118.69Q752.87 117.75 751.63 117.17Q750.39 116.6 748.6 116.6Q746.2 116.6 744.56 117.64Q742.94 118.69 742.96 120.35Q742.94 121.78 744 122.67Q745.09 123.57 747.58 124.14L753.16 125.34Q757.81 126.34 760.07 128.51Q762.35 130.68 762.37 134.2Q762.35 137.29 760.56 139.65Q758.79 142 755.63 143.32Q752.48 144.64 748.39 144.64Q742.38 144.64 738.72 142.13Q735.05 139.59 734.35 135.07L741.87 134.35Q742.38 136.56 744.04 137.69Q745.71 138.82 748.37 138.82Q751.12 138.82 752.78 137.69Q754.46 136.56 754.46 134.9Q754.46 133.5 753.38 132.58Q752.31 131.66 750.05 131.17L744.47 130Q739.76 129.02 737.5 126.7Q735.24 124.36 735.27 120.78Q735.24 117.75 736.91 115.53Q738.59 113.3 741.57 112.08Q744.58 110.85 748.5 110.85Q754.25 110.85 757.55 113.3Q760.88 115.75 761.66 119.92ZM778.16 144.66Q775.05 144.66 772.55 143.55Q770.08 142.42 768.63 140.23Q767.2 138.03 767.2 134.82Q767.2 132.05 768.23 130.24Q769.25 128.42 771.02 127.34Q772.79 126.25 775 125.7Q777.24 125.12 779.63 124.87Q782.5 124.57 784.29 124.33Q786.08 124.08 786.89 123.57Q787.72 123.03 787.72 121.93L787.72 121.8Q787.72 119.39 786.3 118.07Q784.87 116.75 782.18 116.75Q779.35 116.75 777.69 117.98Q776.05 119.22 775.47 120.9L768.27 119.88Q769.12 116.9 771.08 114.89Q773.04 112.87 775.88 111.87Q778.71 110.85 782.14 110.85Q784.51 110.85 786.85 111.4Q789.19 111.95 791.13 113.23Q793.07 114.49 794.24 116.66Q795.44 118.84 795.44 122.1L795.44 144L788.02 144L788.02 139.5L787.77 139.5Q787.06 140.87 785.78 142.06Q784.53 143.23 782.61 143.96Q780.71 144.66 778.16 144.66ZM780.16 138.99Q782.48 138.99 784.19 138.08Q785.89 137.14 786.81 135.61Q787.74 134.07 787.74 132.26L787.74 128.4Q787.38 128.7 786.51 128.96Q785.66 129.21 784.59 129.4Q783.53 129.6 782.48 129.75Q781.44 129.89 780.67 130Q778.94 130.24 777.58 130.77Q776.22 131.3 775.43 132.26Q774.64 133.2 774.64 134.69Q774.64 136.82 776.2 137.91Q777.75 138.99 780.16 138.99ZM803.21 100.36L810.93 100.36L810.93 144L803.21 144L803.21 100.36Z" />
			<path id="Anxiety" fill="#000000" aria-label="Anxiety"  d="M403.96 174.53L371.2 190.83L365.24 184.86L406.96 164.87L413.86 171.77L393.88 213.51L387.91 207.54L404.2 174.77L403.96 174.53ZM379.01 183.42L383.5 178.93L399.77 195.2L395.28 199.69L379.01 183.42ZM416.72 209.23L403.16 222.79L397.7 217.33L420.85 194.19L426.06 199.4L422.13 203.34L422.4 203.61Q425.14 202.46 428.03 203.06Q430.94 203.68 433.53 206.27Q435.93 208.67 436.68 211.47Q437.45 214.29 436.49 217.21Q435.54 220.15 432.75 222.91L418.01 237.64L412.56 232.19L426.45 218.3Q428.77 215.98 428.88 213.46Q429 210.96 426.89 208.85Q425.46 207.42 423.71 206.94Q421.99 206.45 420.18 207Q418.39 207.55 416.72 209.23ZM445.39 218.73L451.17 224.52L447.3 237.73L460.59 233.94L466.36 239.71L447.81 244.3L443.34 262.97L437.6 257.23L441.04 244L427.85 247.48L422.07 241.69L440.69 237.17L445.39 218.73ZM452.89 272.52L447.44 267.07L470.58 243.92L476.03 249.38L452.89 272.52ZM476.61 243.38Q475.3 242.07 475.22 240.28Q475.18 238.49 476.4 237.26Q477.63 236.03 479.42 236.1Q481.23 236.16 482.53 237.46Q483.82 238.76 483.87 240.55Q483.94 242.34 482.71 243.58Q481.49 244.8 479.68 244.74Q477.9 244.68 476.61 243.38ZM468.29 288.82Q464.81 285.34 463.72 281.36Q462.67 277.39 463.98 273.36Q465.31 269.33 468.94 265.69Q472.51 262.12 476.56 260.78Q480.64 259.44 484.61 260.39Q488.58 261.33 491.9 264.64Q494.04 266.78 495.24 269.37Q496.48 271.96 496.51 274.85Q496.55 277.76 495.18 280.82Q493.83 283.86 490.78 286.91L489.11 288.58L470.14 269.61L473.82 265.94L487.56 279.68Q489.11 278.09 489.67 276.21Q490.24 274.31 489.76 272.41Q489.29 270.53 487.73 268.96Q486.05 267.29 483.97 266.84Q481.91 266.37 479.89 266.98Q477.9 267.58 476.34 269.11L473.13 272.32Q471.11 274.34 470.4 276.53Q469.71 278.7 470.26 280.79Q470.84 282.87 472.61 284.65Q473.8 285.84 475.1 286.47Q476.41 287.09 477.78 287.13Q479.15 287.18 480.49 286.56L485.01 292.23Q482.51 293.76 479.65 293.91Q476.82 294.06 473.89 292.8Q470.99 291.52 468.29 288.82ZM505.04 278.38L518.34 291.68L514.12 295.9L500.82 282.6L505.04 278.38ZM491.24 298.75L513.87 276.12L519.32 281.57L497.59 303.3Q496.49 304.4 496.24 305.32Q496.01 306.24 496.36 307.01Q496.7 307.77 497.38 308.45Q497.89 308.96 498.39 309.31Q498.9 309.67 499.19 309.84L495.85 315.02Q495.26 314.74 494.26 314.1Q493.28 313.48 492.09 312.35Q489.99 310.37 489.02 308.05Q488.07 305.71 488.55 303.3Q489.05 300.9 491.24 298.75ZM494.52 331.41Q493.41 330.3 492.62 329.18Q491.87 328.07 491.55 327.27L497.05 324.3Q498.32 326.59 499.85 327.47Q501.42 328.34 504.12 327.21L505.83 326.43L521.07 294.41L526.85 300.2L514.71 323.01L514.95 323.25L537.78 311.12L543.58 316.98L508.37 333.6Q505.91 334.76 503.53 335Q501.15 335.24 498.89 334.4Q496.66 333.55 494.52 331.41Z" />
		</g>
	</g>
</svg>